PathFileType	4	(X/Y/Z)	./resultDataOpenSim/trcMotMarkerGrf/sub10/qtm-03-03.trc
DataRate	CameraRate	NumFrames	NumMarkers	Units	OrigDataRate	OrigDataStartFrame	OrigNumFrames
250.000000	250.000000	13	24	m	250.000000	1	528
Frame#	Time	L.Toe.Tip			R.Toe.Tip			L.Ankle.Lat			R.Ankle.Lat			L.Ankle.Med			R.Ankle.Med			L.Heel			R.Heel			L.Knee.Lat			R.Knee.Lat			L.Knee.Med			R.Knee.Med			L.Thigh.Upper			R.Thigh.Upper			L.ASIS			R.ASIS			V.Sacral			L.Acromium			R.Acromium			C7			L.Elbow			R.Elbow			L.Wrist.Lat			R.Wrist.Lat
		X1	Y1	Z1	X2	Y2	Z2	X3	Y3	Z3	X4	Y4	Z4	X5	Y5	Z5	X6	Y6	Z6	X7	Y7	Z7	X8	Y8	Z8	X9	Y9	Z9	X10	Y10	Z10	X11	Y11	Z11	X12	Y12	Z12	X13	Y13	Z13	X14	Y14	Z14	X15	Y15	Z15	X16	Y16	Z16	X17	Y17	Z17	X18	Y18	Z18	X19	Y19	Z19	X20	Y20	Z20	X21	Y21	Z21	X22	Y22	Z22	X23	Y23	Z23	X24	Y24	Z24

1	0	-1.5283942	0.037788769	-0.15512122	-0.9951789	0.075464615	-0.0049093051	-1.6488482	0.10019033	-0.17919383	-1.1359867	0.067115705	-0.0017966918	-1.6365135	0.11946947	-0.09744246	-1.1067418	0.10365386	-0.076215628	NaN	NaN	NaN	-1.1679391	0.035264906	-0.065241506	-1.480203	0.45035186	-0.21168907	-1.1821854	0.46197534	0.05288609	-1.475035	0.42404814	-0.090940504	-1.1544296	0.47820097	-0.072324008	-1.3707634	0.82923709	-0.26325595	-1.3263411	0.85160316	0.11785284	-1.2889237	0.92864325	-0.20504968	-1.2585156	0.94183685	0.038746157	-1.4707705	0.96364078	-0.058061313	-1.2810704	1.4058549	-0.23990823	-1.3003914	1.406636	0.082169088	-1.3721327	1.4406185	-0.09011501	-1.3457732	1.0645895	-0.29718778	-1.4640811	1.093406	0.11196194	-1.1539338	0.90559056	-0.31314292	-1.374571	0.87812604	0.18722119
2	0.004	-1.5282246	0.037772749	-0.15523125	-0.98096553	0.076952615	-0.0058062064	-1.6487011	0.10053418	-0.17915032	-1.1217566	0.066909931	-0.0017513817	-1.6354191	0.12024587	-0.097872459	-1.0933241	0.1043127	-0.076125849	NaN	NaN	NaN	-1.1535643	0.034977107	-0.06504328	-1.4789356	0.45008613	-0.21171126	-1.177102	0.46054774	0.053373579	-1.4738648	0.42362887	-0.090858895	-1.1498965	0.47699112	-0.072114134	-1.3674776	0.8283439	-0.26335682	-1.3213186	0.85051389	0.11800772	-1.284982	0.92740579	-0.20517986	-1.2538926	0.94065128	0.03844432	-1.4664921	0.96232198	-0.057711226	-1.2768188	1.4046941	-0.23997263	-1.2963735	1.4054128	0.08213774	-1.3680151	1.4394814	-0.090286382	-1.3396193	1.0628698	-0.29734563	-1.4606192	1.0924926	0.11182579	-1.1456591	0.90618099	-0.3125206	-1.3715917	0.87718511	0.18740701
3	0.008	-1.5280863	0.037754645	-0.15532168	-0.96689312	0.078499158	-0.0068125843	-1.6483874	0.10091645	-0.17912425	-1.1076096	0.066853231	-0.0016306386	-1.634412	0.12105242	-0.098260681	-1.080104	0.10504148	-0.076014551	NaN	NaN	NaN	-1.1393756	0.034824324	-0.064797726	-1.4775828	0.449808	-0.21174997	-1.1718998	0.45917641	0.053900241	-1.4726092	0.42322368	-0.09079939	-1.1453751	0.47575182	-0.071911335	-1.3642393	0.82745366	-0.26353747	-1.3163301	0.84937831	0.11814721	-1.2810108	0.92615742	-0.20530329	-1.2491498	0.93945675	0.038148767	-1.4621528	0.96100412	-0.05730958	-1.2725309	1.4035115	-0.24004537	-1.292357	1.404188	0.08210936	-1.3638717	1.4383266	-0.090425132	-1.3334574	1.0611618	-0.29751623	-1.457122	1.0915595	0.11170018	-1.1374716	0.9067926	-0.31192354	-1.3686004	0.87621419	0.18758577
4	0.012	-1.5281377	0.037727403	-0.15531778	-0.95302225	0.080160179	-0.0080144514	-1.6478105	0.10135832	-0.17912126	-1.0935231	0.067044928	-0.0013617889	-1.6335744	0.12183602	-0.0985497	-1.0671781	0.10586566	-0.075868702	NaN	NaN	NaN	-1.1254544	0.034857345	-0.064434663	-1.4761173	0.44951294	-0.21180917	-1.1665175	0.45785817	0.0544869	-1.4711709	0.42282969	-0.090784709	-1.1408674	0.47446681	-0.071710113	-1.361	0.82656046	-0.26374077	-1.3113149	0.84817474	0.11827386	-1.2770161	0.92488817	-0.20544009	-1.2442749	0.9382418	0.037853544	-1.4577299	0.95967352	-0.056838223	-1.2681903	1.4022921	-0.24012243	-1.2883115	1.4029605	0.082086286	-1.359694	1.4371425	-0.090532524	-1.3272732	1.0594663	-0.29769223	-1.4535646	1.0905951	0.11159065	-1.129365	0.90743174	-0.31134115	-1.3655888	0.87520066	0.18775804
5	0.016	-1.5285432	0.037687099	-0.15514575	-0.93941037	0.081967264	-0.0094173521	-1.6470513	0.10184667	-0.17912315	-1.0795108	0.067492962	-0.00092153886	-1.6329535	0.122509	-0.098699121	-1.0545783	0.10676741	-0.075683094	NaN	NaN	NaN	-1.111799	0.035054653	-0.063822815	-1.4745677	0.4492003	-0.21188252	-1.1610098	0.45655061	0.05512142	-1.4695234	0.42242468	-0.090823938	-1.1363647	0.47314271	-0.071497316	-1.3576587	0.82566779	-0.26385364	-1.3062108	0.8469138	0.11839165	-1.2730488	0.92359664	-0.20562474	-1.2393476	0.93700295	0.037551628	-1.4532567	0.95831213	-0.056323167	-1.2638115	1.4010336	-0.24018675	-1.2842239	1.4017247	0.082069233	-1.3554951	1.4359288	-0.090634705	-1.3210666	1.0577869	-0.29784648	-1.4499424	1.0895996	0.11149777	-1.1212928	0.90809671	-0.31074096	-1.3625526	0.87415462	0.18793227
6	0.02	-1.5291546	0.037649268	-0.1548776	-0.92612278	0.083938469	-0.010950209	-1.6464116	0.10234141	-0.17909241	-1.0658042	0.068071795	-0.00039741158	-1.6325188	0.12304681	-0.098722131	-1.0423164	0.10771456	-0.075464102	NaN	NaN	NaN	-1.0983817	0.035355179	-0.062763073	-1.4729644	0.44886914	-0.21196754	-1.1555889	0.45520839	0.055746013	-1.4677462	0.42197903	-0.090898708	-1.1318431	0.47179409	-0.07125772	-1.3541773	0.82478586	-0.26385031	-1.3010123	0.84561849	0.1185006	-1.2691448	0.9222911	-0.20586956	-1.234407	0.93574701	0.037248714	-1.4487695	0.95690936	-0.055795532	-1.2594165	1.3997486	-0.2402242	-1.280103	1.4004717	0.082065333	-1.3512809	1.4346917	-0.090741011	-1.3148327	1.0561326	-0.29791809	-1.4462552	1.0885786	0.11142038	-1.1132256	0.90878979	-0.31009889	-1.359491	0.87308588	0.18811508
7	0.024	-1.5295477	0.037637665	-0.15471093	-0.91321218	0.086077737	-0.012506524	-1.6461906	0.10281484	-0.17900735	-1.0527505	0.068593853	6.9109791e-05	-1.6321721	0.12350956	-0.098681472	-1.0304354	0.10866906	-0.075229854	NaN	NaN	NaN	-1.0852554	0.035672245	-0.061154248	-1.4713036	0.44852623	-0.21206756	-1.1504345	0.45381303	0.056309518	-1.4659263	0.42148677	-0.090978643	-1.1272855	0.47042882	-0.070981965	-1.3506167	0.82391541	-0.26378754	-1.295728	0.84430025	0.11861019	-1.2652843	0.92098481	-0.20615213	-1.2294218	0.93448035	0.036948395	-1.4442657	0.95547134	-0.055251632	-1.2550206	1.3984611	-0.24023479	-1.2759385	1.3992032	0.082082606	-1.347045	1.4334358	-0.090829526	-1.3085585	1.0545049	-0.29783144	-1.4425017	1.0875376	0.1113563	-1.1051647	0.90951415	-0.30940989	-1.3564068	0.87199072	0.18830445
8	0.028	-1.5294916	0.037653451	-0.15475131	-0.90072938	0.088342315	-0.01398724	-1.6463499	0.10328458	-0.17889414	-1.0404379	0.069000698	0.00044861997	-1.6318208	0.12398595	-0.098648432	-1.019018	0.10957887	-0.074993928	NaN	NaN	NaN	-1.0725568	0.035932407	-0.059196326	-1.469552	0.44818794	-0.21217821	-1.1454729	0.45240321	0.056818226	-1.4640504	0.42098488	-0.091054328	-1.1226932	0.46905123	-0.070676537	-1.347053	0.82305603	-0.26372566	-1.2903638	0.84295201	0.1187216	-1.2614144	0.91968829	-0.2064424	-1.2243662	0.93319635	0.036634567	-1.4397216	0.95401791	-0.054670057	-1.2506259	1.3971898	-0.24022591	-1.2717017	1.3979293	0.082115416	-1.3427845	1.4321615	-0.090882365	-1.3022501	1.0528855	-0.29759192	-1.4386804	1.0864784	0.11130208	-1.097125	0.91027056	-0.30868388	-1.3532919	0.87086204	0.18849647
9	0.032	-1.5291392	0.037676704	-0.15492649	-0.88874729	0.090655452	-0.015367474	-1.6465413	0.10379722	-0.17880522	-1.0286289	0.069405669	0.00086135066	-1.6314236	0.12453646	-0.098668746	-1.0081457	0.11038875	-0.074753567	NaN	NaN	NaN	-1.06039	0.036106718	-0.057284289	-1.4676742	0.44787127	-0.21229539	-1.1404799	0.45105979	0.057304128	-1.4620424	0.42052105	-0.091144229	-1.1180715	0.4676712	-0.070360206	-1.3435058	0.82221509	-0.26369102	-1.2849414	0.84157063	0.11881748	-1.2574958	0.91840672	-0.20673113	-1.2192547	0.93188437	0.036291832	-1.4351295	0.95256292	-0.054046225	-1.2462264	1.3959367	-0.24020235	-1.267384	1.3966547	0.082153802	-1.3385064	1.4308714	-0.0909091	-1.295949	1.0512421	-0.29732046	-1.4347892	1.0854012	0.1112565	-1.089123	0.91105993	-0.3079376	-1.3501303	0.86969804	0.18869211
10	0.036	-1.5287601	0.037692127	-0.15511174	-0.87732775	0.092968704	-0.016696769	-1.646475	0.10437411	-0.17876149	-1.0170955	0.06991901	0.0014234134	-1.6309936	0.12516993	-0.098751767	-0.99784091	0.11107489	-0.074495711	NaN	NaN	NaN	-1.0487667	0.036198425	-0.055644441	-1.4656542	0.44758616	-0.21243066	-1.1352869	0.44984382	0.057788272	-1.4598675	0.42009803	-0.091270013	-1.1134129	0.46630538	-0.070047782	-1.3399518	0.82139422	-0.26367567	-1.2794717	0.84017504	0.1188939	-1.253516	0.91714184	-0.20702539	-1.2141159	0.9305492	0.035927603	-1.4304967	0.9511027	-0.053390111	-1.2418129	1.3946903	-0.24016368	-1.2630069	1.3953767	0.082202968	-1.3342137	1.4295742	-0.090915628	-1.2896971	1.0495542	-0.29713433	-1.430826	1.0843094	0.11122198	-1.0811617	0.91188431	-0.30718116	-1.3469219	0.86850269	0.1888943
11	0.04	-1.5285013	0.037698194	-0.15523992	-0.86645375	0.095278632	-0.01798129	-1.646096	0.10497718	-0.17873709	-1.0058273	0.070530303	0.0021369976	-1.6305987	0.12584901	-0.098867533	-0.98805221	0.11165192	-0.074205924	NaN	NaN	NaN	-1.037653	0.036219396	-0.054203611	-1.4634992	0.44732622	-0.21258477	-1.1298233	0.4487758	0.058284523	-1.457547	0.41966917	-0.091434928	-1.1086961	0.46497599	-0.069738465	-1.3363739	0.82058605	-0.26366763	-1.273921	0.83878929	0.11896563	-1.2494703	0.91589446	-0.20732856	-1.2089741	0.92920535	0.035553662	-1.4258326	0.94962879	-0.052713095	-1.2373686	1.3934387	-0.24010339	-1.2586052	1.3940946	0.082281983	-1.3298979	1.4282804	-0.090886707	-1.2835024	1.0478399	-0.2970487	-1.4267868	1.0832097	0.11120099	-1.0732236	0.91274636	-0.30640927	-1.3437102	0.86728281	0.1891055
12	0.044	-1.5283671	0.037700371	-0.1553087	-0.85602019	0.097592118	-0.019134992	-1.6454705	0.10554257	-0.17870168	-0.99494668	0.071155799	0.0029349338	-1.6303037	0.12653693	-0.098973149	-0.97870235	0.11213742	-0.073868185	NaN	NaN	NaN	-1.0270214	0.036179508	-0.052788581	-1.461227	0.44706967	-0.2127275	-1.1240577	0.44786731	0.058806571	-1.4551129	0.41919599	-0.091623945	-1.1038948	0.46370953	-0.06942065	-1.3327781	0.81978771	-0.26367157	-1.2682466	0.83742223	0.11903667	-1.245354	0.91466594	-0.20763473	-1.203833	0.92785688	0.035166911	-1.4211426	0.94814072	-0.052022952	-1.2328768	1.3921835	-0.24001198	-1.2542048	1.3928149	0.08240447	-1.3255506	1.4269958	-0.090813149	-1.2773469	1.0461506	-0.29700467	-1.422667	1.0821081	0.11119385	-1.0652915	0.91364863	-0.30560843	-1.3405501	0.86604295	0.18933423
13	0.048	-1.5282979	0.037704097	-0.15534421	-0.84591767	0.099875613	-0.020095729	-1.6446961	0.10606312	-0.17866063	-0.98457347	0.071714573	0.0037576149	-1.6300681	0.12723464	-0.099057124	-0.96974097	0.11252435	-0.073467957	NaN	NaN	NaN	-1.0168697	0.036084816	-0.051308254	-1.4588595	0.44680135	-0.21283461	-1.1180064	0.44712304	0.059350422	-1.4525808	0.41869724	-0.091819749	-1.0989833	0.46252942	-0.06908439	-1.3291709	0.81900564	-0.26368319	-1.2624615	0.83607066	0.11909678	-1.2411801	0.9134598	-0.20794101	-1.1986654	0.92650009	0.034764094	-1.4164181	0.94664578	-0.051316606	-1.2283345	1.3909413	-0.23988415	-1.2498006	1.3915475	0.082565323	-1.3211688	1.4257215	-0.090695327	-1.271205	1.0445302	-0.29692809	-1.4184633	1.0810052	0.11119907	-1.0573764	0.91459028	-0.30477752	-1.3373928	0.86478548	0.18959702
